# xmcd
#
# Track frame offsets:
#   150
#   18468
#   33608
#   52382
#   73927
#   91054
#   110767
#   129805
#   144762
#   167525
#   185054
#   202287
#
# Disc length: 2942 seconds
#
# Revision: 0
# Processed by: cddbd v1.5.2PL0 Copyright (c) Steve Scherf et al.
# Submitted via: GXTranscoder 2.0.1939
#
DISCID=b20b7c0c
DTITLE=Keyshia Cole - The Way It Is
DYEAR=2005
DGENRE=R and B
TTITLE0=(I Just Want It) To Be Over
TTITLE1=I Changed My Mind
TTITLE2=Love, I Thought You Had My Back
TTITLE3=I Should Have Cheated
TTITLE4=Guess What
TTITLE5=Love
TTITLE6=You've Changed
TTITLE7=We Could Be
TTITLE8=Situations
TTITLE9=Down And Dirty
TTITLE10=Superstar
TTITLE11=Never
EXTD=
EXTT0=
EXTT1=
EXTT2=
EXTT3=
EXTT4=
EXTT5=
EXTT6=
EXTT7=
EXTT8=
EXTT9=
EXTT10=
EXTT11=
PLAYORDER=
